<svg width="5" height="9" viewBox="0 0 5 9" fill="none" xmlns="http://www.w3.org/2000/svg">
<path d="M0.696411 8.14355C0.555135 8.14355 0.434367 8.09456 0.334106 7.99658C0.233846 7.8986 0.183716 7.77897 0.183716 7.6377C0.183716 7.49642 0.236125 7.37337 0.340942 7.26855L3.10266 4.51367L0.340942 1.75879C0.236125 1.65397 0.183716 1.53092 0.183716 1.38965C0.183716 1.24837 0.233846 1.12874 0.334106 1.03076C0.434367 0.93278 0.555135 0.883789 0.696411 0.883789C0.828573 0.883789 0.947062 0.931641 1.05188 1.02734L4.16907 4.13086C4.27844 4.23112 4.33313 4.35872 4.33313 4.51367C4.33313 4.65951 4.27844 4.78711 4.16907 4.89648L1.05188 8C0.956177 8.0957 0.837687 8.14355 0.696411 8.14355Z" fill="#0066CC"/>
</svg>
