<svg width="29" height="28" viewBox="0 0 29 28" fill="none" xmlns="http://www.w3.org/2000/svg">
<path d="M14.3333 9.625C13.468 9.625 12.6221 9.88159 11.9026 10.3623C11.1832 10.8431 10.6224 11.5263 10.2913 12.3258C9.96014 13.1252 9.87351 14.0049 10.0423 14.8535C10.2111 15.7022 10.6278 16.4817 11.2397 17.0936C11.8515 17.7054 12.6311 18.1221 13.4797 18.2909C14.3284 18.4597 15.2081 18.3731 16.0075 18.042C16.8069 17.7108 17.4902 17.1501 17.9709 16.4306C18.4517 15.7112 18.7083 14.8653 18.7083 14C18.7083 12.8397 18.2473 11.7269 17.4268 10.9064C16.6064 10.0859 15.4936 9.625 14.3333 9.625ZM14.3333 16.625C13.8141 16.625 13.3066 16.471 12.8749 16.1826C12.4432 15.8942 12.1067 15.4842 11.9081 15.0045C11.7094 14.5249 11.6574 13.9971 11.7587 13.4879C11.86 12.9787 12.11 12.511 12.4771 12.1438C12.8442 11.7767 13.3119 11.5267 13.8211 11.4254C14.3303 11.3242 14.8581 11.3761 15.3378 11.5748C15.8175 11.7735 16.2274 12.1099 16.5159 12.5416C16.8043 12.9733 16.9583 13.4808 16.9583 14C16.9583 14.6962 16.6817 15.3639 16.1894 15.8562C15.6971 16.3484 15.0294 16.625 14.3333 16.625ZM26.5833 6.125H2.08325C1.85119 6.125 1.62863 6.21719 1.46453 6.38128C1.30044 6.54538 1.20825 6.76794 1.20825 7V21C1.20825 21.2321 1.30044 21.4546 1.46453 21.6187C1.62863 21.7828 1.85119 21.875 2.08325 21.875H26.5833C26.8153 21.875 27.0379 21.7828 27.202 21.6187C27.3661 21.4546 27.4583 21.2321 27.4583 21V7C27.4583 6.76794 27.3661 6.54538 27.202 6.38128C27.0379 6.21719 26.8153 6.125 26.5833 6.125ZM21.5137 20.125H7.15278C6.85901 19.1314 6.32132 18.2272 5.5887 17.4945C4.85608 16.7619 3.95181 16.2242 2.95825 15.9305V12.0695C3.95181 11.7758 4.85608 11.2381 5.5887 10.5055C6.32132 9.77283 6.85901 8.86856 7.15278 7.875H21.5137C21.8075 8.86856 22.3452 9.77283 23.0778 10.5055C23.8104 11.2381 24.7147 11.7758 25.7083 12.0695V15.9305C24.7147 16.2242 23.8104 16.7619 23.0778 17.4945C22.3452 18.2272 21.8075 19.1314 21.5137 20.125ZM25.7083 10.2123C24.6587 9.76105 23.8222 8.92452 23.3709 7.875H25.7083V10.2123ZM5.2956 7.875C4.84431 8.92452 4.00777 9.76105 2.95825 10.2123V7.875H5.2956ZM2.95825 17.7877C4.00777 18.2389 4.84431 19.0755 5.2956 20.125H2.95825V17.7877ZM23.3709 20.125C23.8222 19.0755 24.6587 18.2389 25.7083 17.7877V20.125H23.3709Z" fill="white"/>
</svg>
