<svg width="28" height="28" viewBox="0 0 28 28" fill="none" xmlns="http://www.w3.org/2000/svg">
<path d="M7.00002 25.6667C6.35836 25.6667 5.80886 25.438 5.35152 24.9807C4.89419 24.5233 4.66591 23.9742 4.66669 23.3333V9.33334C4.66669 8.69168 4.89536 8.14218 5.35269 7.68484C5.81002 7.22751 6.35913 6.99923 7.00002 7.00001H9.33336C9.33336 5.71668 9.7903 4.61807 10.7042 3.70418C11.6181 2.79029 12.7167 2.33334 14 2.33334C15.2834 2.33334 16.382 2.79029 17.2959 3.70418C18.2097 4.61807 18.6667 5.71668 18.6667 7.00001H21C21.6417 7.00001 22.1912 7.22868 22.6485 7.68601C23.1059 8.14334 23.3341 8.69245 23.3334 9.33334V23.3333C23.3334 23.975 23.1047 24.5245 22.6474 24.9818C22.19 25.4392 21.6409 25.6675 21 25.6667H7.00002ZM7.00002 23.3333H21V9.33334H18.6667V11.6667C18.6667 11.9972 18.5547 12.2745 18.3307 12.4985C18.1067 12.7225 17.8298 12.8341 17.5 12.8333C17.1695 12.8333 16.8922 12.7213 16.6682 12.4973C16.4442 12.2733 16.3326 11.9965 16.3334 11.6667V9.33334H11.6667V11.6667C11.6667 11.9972 11.5547 12.2745 11.3307 12.4985C11.1067 12.7225 10.8298 12.8341 10.5 12.8333C10.1695 12.8333 9.89219 12.7213 9.66819 12.4973C9.44419 12.2733 9.33258 11.9965 9.33336 11.6667V9.33334H7.00002V23.3333ZM11.6667 7.00001H16.3334C16.3334 6.35834 16.1047 5.80884 15.6474 5.35151C15.19 4.89418 14.6409 4.6659 14 4.66668C13.3584 4.66668 12.8089 4.89534 12.3515 5.35268C11.8942 5.81001 11.6659 6.35912 11.6667 7.00001Z" fill="white"/>
</svg>
