<svg width="21" height="20" viewBox="0 0 21 20" fill="none" xmlns="http://www.w3.org/2000/svg">
<circle cx="10.3333" cy="10" r="10" fill="white" fill-opacity="0.4"/>
<path d="M6.8484 12.669C6.6231 12.8943 6.6231 13.2595 6.8484 13.4849C7.0737 13.7102 7.43899 13.7102 7.66429 13.4849L6.8484 12.669ZM14.3604 6.54976C14.3604 6.23114 14.1021 5.97284 13.7835 5.97284L8.59118 5.97284C8.27255 5.97284 8.01426 6.23114 8.01426 6.54976C8.01426 6.86839 8.27255 7.12669 8.59118 7.12669H13.2066V11.7421C13.2066 12.0607 13.4649 12.319 13.7835 12.319C14.1021 12.319 14.3604 12.0607 14.3604 11.7421L14.3604 6.54976ZM7.66429 13.4849L14.1914 6.95771L13.3755 6.14182L6.8484 12.669L7.66429 13.4849Z" fill="#6A4BB4"/>
</svg>
